HIERARCHY
ROOT hip
{
  OFFSET 356.725 77.773 -16.5809
  CHANNELS 6 Xposition Yposition Zposition Zrotation Xrotation Yrotation
  JOINT abdomen
  {
    OFFSET 0 20.6881 -0.73152
    CHANNELS 3 Zrotation Xrotation Yrotation
    JOINT chest
    {
      OFFSET 0 11.7043 -0.48768
      CHANNELS 3 Zrotation Xrotation Yrotation
      JOINT neck
      {
        OFFSET 0 22.1894 -2.19456
        CHANNELS 3 Zrotation Xrotation Yrotation
        JOINT head
        {
          OFFSET -0.24384 7.07133 1.2192
          CHANNELS 3 Zrotation Xrotation Yrotation
          JOINT leftEye
          {
            OFFSET 4.14528 8.04674 8.04672
            CHANNELS 3 Zrotation Xrotation Yrotation
            End Site
            {
              OFFSET 1 0 0
            }
          }
          JOINT rightEye
          {
            OFFSET -3.6576 8.04674 8.04672
            CHANNELS 3 Zrotation Xrotation Yrotation
            End Site
            {
              OFFSET 1 0 0
            }
          }
        }
      }
      JOINT rCollar
      {
        OFFSET -2.68224 19.2634 -4.8768
        CHANNELS 3 Zrotation Xrotation Yrotation
        JOINT rShldr
        {
          OFFSET -8.77824 -1.95073 1.46304
          CHANNELS 3 Zrotation Xrotation Yrotation
          JOINT rForeArm
          {
            OFFSET -28.1742 -1.7115 0.48768
            CHANNELS 3 Zrotation Xrotation Yrotation
            JOINT rHand
            {
              OFFSET -22.5879 0.773209 7.07136
              CHANNELS 3 Zrotation Xrotation Yrotation
              JOINT rThumb1
              {
                OFFSET -1.2192 -0.487915 3.41376
                CHANNELS 3 Zrotation Xrotation Yrotation
                JOINT rThumb2
                {
                  OFFSET -3.37035 -0.52449 3.41376
                  CHANNELS 3 Zrotation Xrotation Yrotation
                  End Site
                  {
                    OFFSET -1.78271 -1.18214 1.43049
                  }
                }
              }
              JOINT rIndex1
              {
                OFFSET -7.75947 0.938293 5.60832
                CHANNELS 3 Zrotation Xrotation Yrotation
                JOINT rIndex2
                {
                  OFFSET -2.54057 -0.884171 1.56538
                  CHANNELS 3 Zrotation Xrotation Yrotation
                  End Site
                  {
                    OFFSET -1.62519 -0.234802 1.16502
                  }
                }
              }
              JOINT rMid1
              {
                OFFSET -8.24714 1.18213 3.41376
                CHANNELS 3 Zrotation Xrotation Yrotation
                JOINT rMid2
                {
                  OFFSET -3.10165 -0.590103 1.0647
                  CHANNELS 3 Zrotation Xrotation Yrotation
                  End Site
                  {
                    OFFSET -2.48547 -0.328903 0.83742
                  }
                }
              }
              JOINT rRing1
              {
                OFFSET -8.82822 0.546677 1.51678
                CHANNELS 3 Zrotation Xrotation Yrotation
                JOINT rRing2
                {
                  OFFSET -2.60934 -0.819778 -0.0198488
                  CHANNELS 3 Zrotation Xrotation Yrotation
                  End Site
                  {
                    OFFSET -2.33842 -0.294052 0.168128
                  }
                }
              }
              JOINT rPinky1
              {
                OFFSET -8.27202 -0.0477905 -0.4584
                CHANNELS 3 Zrotation Xrotation Yrotation
                JOINT rPinky2
                {
                  OFFSET -1.82734 -0.647385 -0.700984
                  CHANNELS 3 Zrotation Xrotation Yrotation
                  End Site
                  {
                    OFFSET -1.69225 -0.51767 -0.607171
                  }
                }
              }
            }
          }
        }
      }
      JOINT lCollar
      {
        OFFSET 2.68224 19.2634 -4.8768
        CHANNELS 3 Zrotation Xrotation Yrotation
        JOINT lShldr
        {
          OFFSET 8.77824 -1.95073 1.46304
          CHANNELS 3 Zrotation Xrotation Yrotation
          JOINT lForeArm
          {
            OFFSET 28.1742 -1.7115 0.48768
            CHANNELS 3 Zrotation Xrotation Yrotation
            JOINT lHand
            {
              OFFSET 22.5879 0.773209 7.07136
              CHANNELS 3 Zrotation Xrotation Yrotation
              JOINT lThumb1
              {
                OFFSET 1.2192 -0.487915 3.41376
                CHANNELS 3 Zrotation Xrotation Yrotation
                JOINT lThumb2
                {
                  OFFSET 3.37035 -0.52449 3.41376
                  CHANNELS 3 Zrotation Xrotation Yrotation
                  End Site
                  {
                    OFFSET 1.78271 -1.18214 1.43049
                  }
                }
              }
              JOINT lIndex1
              {
                OFFSET 7.75947 0.938293 5.60832
                CHANNELS 3 Zrotation Xrotation Yrotation
                JOINT lIndex2
                {
                  OFFSET 2.54057 -0.884171 1.56538
                  CHANNELS 3 Zrotation Xrotation Yrotation
                  End Site
                  {
                    OFFSET 1.62519 -0.234802 1.16502
                  }
                }
              }
              JOINT lMid1
              {
                OFFSET 8.24714 1.18213 3.41376
                CHANNELS 3 Zrotation Xrotation Yrotation
                JOINT lMid2
                {
                  OFFSET 3.10165 -0.590103 1.0647
                  CHANNELS 3 Zrotation Xrotation Yrotation
                  End Site
                  {
                    OFFSET 2.48547 -0.328903 0.83742
                  }
                }
              }
              JOINT lRing1
              {
                OFFSET 8.82822 0.546677 1.51678
                CHANNELS 3 Zrotation Xrotation Yrotation
                JOINT lRing2
                {
                  OFFSET 2.60934 -0.819778 -0.0198488
                  CHANNELS 3 Zrotation Xrotation Yrotation
                  End Site
                  {
                    OFFSET 2.33842 -0.294052 0.168128
                  }
                }
              }
              JOINT lPinky1
              {
                OFFSET 8.27202 -0.0477905 -0.4584
                CHANNELS 3 Zrotation Xrotation Yrotation
                JOINT lPinky2
                {
                  OFFSET 1.82734 -0.647385 -0.700984
                  CHANNELS 3 Zrotation Xrotation Yrotation
                  End Site
                  {
                    OFFSET 1.69225 -0.51767 -0.607171
                  }
                }
              }
            }
          }
        }
      }
    }
  }
  JOINT rButtock
  {
    OFFSET -8.77824 4.35084 1.2192
    CHANNELS 3 Zrotation Xrotation Yrotation
    JOINT rThigh
    {
      OFFSET 0 -1.70687 -2.19456
      CHANNELS 3 Zrotation Xrotation Yrotation
      JOINT rShin
      {
        OFFSET 0 -36.8199 0.73152
        CHANNELS 3 Zrotation Xrotation Yrotation
        JOINT rFoot
        {
          OFFSET 0.73152 -45.1104 -5.12064
          CHANNELS 3 Zrotation Xrotation Yrotation
          End Site
          {
            OFFSET -1.1221 -3.69964 12.103
          }
        }
      }
    }
  }
  JOINT lButtock
  {
    OFFSET 8.77824 4.35084 1.2192
    CHANNELS 3 Zrotation Xrotation Yrotation
    JOINT lThigh
    {
      OFFSET 0 -1.70687 -2.19456
      CHANNELS 3 Zrotation Xrotation Yrotation
      JOINT lShin
      {
        OFFSET 0 -36.8199 0.73152
        CHANNELS 3 Zrotation Xrotation Yrotation
        JOINT lFoot
        {
          OFFSET -0.73152 -45.1104 -5.12064
          CHANNELS 3 Zrotation Xrotation Yrotation
          End Site
          {
            OFFSET 1.1221 -3.69964 12.103
          }
        }
      }
    }
  }
}
MOTION
Frames:	6
Frame Time:	0.00833333
-23.858 81.7092 -1.36983 10.4327 10.5194 -89.2974 -15.18 16.196 -3.73626 8.88798 -3.39442 -0.987157 3.7923 -13.8748 5.00982 -4.86036 -11.1303 7.79987 -0 0 0 -0 0 0 -1.22354e-013 1.43563e-012 9.56846e-015 107.978 42.5702 -60.8684 -28.3718 -37.5375 79.5981 -0.600227 -21.4619 -3.16729 1.12553e-010 -1.30543e-010 -2.37932e-011 1.95073e-010 -2.23963e-010 -4.0178e-011 1.12554e-010 -1.3054e-010 -2.37942e-011 7.73091 5.47488 0.417314 1.12553e-010 -1.30539e-010 -2.37998e-011 2.90554 0.965183 0.102902 1.12562e-010 -1.30539e-010 -2.38014e-011 10.2786 0.731801 0.0259123 1.12546e-010 -1.30536e-010 -2.38077e-011 2.22167 -0.733487 -0.20892 -1.22504e-013 1.43563e-012 9.25087e-015 -76.6535 64.4575 2.42116 26.7298 -44.703 -92.8562 0.110939 -9.57355 1.3578 -8.2134e-012 3.48001e-010 -6.04018e-010 -3.77334e-012 6.06011e-010 -1.04508e-009 -8.21499e-012 3.48003e-010 -6.04008e-010 -7.73091 5.47488 -0.417314 -8.20985e-012 3.48005e-010 -6.04018e-010 -2.90554 0.965183 -0.102902 -8.21289e-012 3.48004e-010 -6.04021e-010 -10.2786 0.731801 -0.0259123 -8.20587e-012 3.48005e-010 -6.04024e-010 -2.22167 -0.733487 0.20892 -2.03217e-016 0 -3.88251e-019 -13.4106 -44.1562 -9.94293 -0.481389 38.7079 -0.529541 0.199798 -11.2645 2.05489 2.03217e-016 0 3.88251e-019 -14.1234 11.0348 -3.02366 0.686187 51.1102 -0.896986 0.6466 7.32246 -0.544888 
-21.7972 81.12 -1.412 9.6649 10.6995 -88.9429 -15.3371 16.8392 -3.06627 8.94563 -3.2966 -0.808108 3.66799 -13.8213 4.93023 -4.90196 -11.3464 7.70319 -0 0 0 -0 0 0 -3.4888e-013 4.94844e-012 -8.79653e-014 106.054 43.2468 -57.0419 -28.3994 -37.1257 78.8851 -0.57262 -20.9942 -3.09146 1.16224e-009 -6.12072e-010 1.51362e-009 1.98069e-009 -1.05389e-009 2.63674e-009 1.16224e-009 -6.12068e-010 1.51361e-009 7.73091 5.47488 0.417314 1.16224e-009 -6.12068e-010 1.51361e-009 2.90554 0.965183 0.102902 1.16225e-009 -6.12067e-010 1.51361e-009 10.2786 0.731801 0.0259123 1.16223e-009 -6.12065e-010 1.51361e-009 2.22167 -0.733487 -0.20892 -3.49073e-013 4.94844e-012 -8.82387e-014 -79.2839 64.5028 5.01119 26.9805 -44.0264 -91.5563 0.142513 -10.8214 1.53889 -2.20142e-010 4.30018e-009 -3.29811e-009 -3.45037e-010 7.45345e-009 -5.70255e-009 -2.20143e-010 4.30018e-009 -3.29809e-009 -7.73091 5.47488 -0.417314 -2.20138e-010 4.30018e-009 -3.29811e-009 -2.90554 0.965183 -0.102902 -2.20142e-010 4.30018e-009 -3.29811e-009 -10.2786 0.731801 -0.0259123 -2.20137e-010 4.30018e-009 -3.29811e-009 -2.22167 -0.733487 0.20892 -2.03217e-016 0 -3.88251e-019 -13.1033 -42.7589 -9.56678 -0.508774 39.6108 -0.543441 -0.218355 -12.2922 0.543216 2.03217e-016 0 3.88251e-019 -14.2475 9.82159 -1.9728 0.908476 55.818 -1.10192 0.621247 6.3524 1.46101 
-19.6479 80.5438 -1.46744 8.82821 10.6837 -88.4225 -15.2777 17.6004 -2.33268 8.93556 -3.29407 -0.600774 3.55028 -13.7577 4.83009 -4.96168 -11.5506 7.55864 -0 0 0 -0 0 0 -5.5419e-013 8.16558e-012 -1.83597e-013 104.097 43.8389 -53.1234 -28.4168 -36.7246 78.2103 -0.550456 -20.6049 -3.0288 2.13286e-009 -1.05699e-009 3.00365e-009 3.63073e-009 -1.82085e-009 5.23003e-009 2.13286e-009 -1.05698e-009 3.00364e-009 7.73091 5.47488 0.417314 2.13286e-009 -1.05698e-009 3.00364e-009 2.90554 0.965183 0.102902 2.13287e-009 -1.05698e-009 3.00364e-009 10.2786 0.731801 0.0259123 2.13285e-009 -1.05698e-009 3.00365e-009 2.22167 -0.733487 -0.20892 -5.54418e-013 8.16559e-012 -1.83826e-013 -81.9023 64.387 7.53759 27.2358 -43.2867 -90.1248 0.184536 -12.1996 1.74103 -4.31067e-010 7.88661e-009 -5.76108e-009 -6.86274e-010 1.36674e-008 -9.96048e-009 -4.31069e-010 7.88661e-009 -5.76106e-009 -7.73091 5.47488 -0.417314 -4.31063e-010 7.88661e-009 -5.76108e-009 -2.90554 0.965183 -0.102902 -4.31069e-010 7.88661e-009 -5.76108e-009 -10.2786 0.731801 -0.0259123 -4.31065e-010 7.88661e-009 -5.76108e-009 -2.22167 -0.733487 0.20892 -2.03217e-016 0 -3.88251e-019 -12.3678 -41.3296 -8.86912 -0.538727 40.7519 -0.53737 -0.720952 -13.4734 -1.08008 2.03217e-016 0 3.88251e-019 -14.0066 8.55085 -0.782357 1.18773 60.5545 -1.37788 0.621528 5.69789 2.6187 
-17.5303 79.9119 -1.48809 7.99058 10.1964 -87.674 -14.6197 18.4707 -1.60479 8.75473 -3.47348 -0.366142 3.50183 -13.5995 4.71714 -5.12697 -11.8522 7.34291 -0 0 0 -0 0 0 -6.45559e-013 9.62147e-012 -2.30491e-013 102.222 44.3228 -49.264 -28.4241 -36.3813 77.6496 -0.539269 -20.4014 -2.99625 2.6104e-009 -1.28893e-009 3.79736e-009 4.44135e-009 -2.22098e-009 6.61075e-009 2.6104e-009 -1.28892e-009 3.79735e-009 7.73091 5.47488 0.417314 2.6104e-009 -1.28893e-009 3.79735e-009 2.90554 0.965183 0.102902 2.61041e-009 -1.28893e-009 3.79735e-009 10.2786 0.731801 0.0259123 2.6104e-009 -1.28892e-009 3.79736e-009 2.22167 -0.733487 -0.20892 -6.45789e-013 9.62148e-012 -2.3069e-013 -84.5533 64.0867 10.0229 27.5071 -42.4813 -88.4959 0.229346 -13.5135 1.93559 -5.31671e-010 9.64706e-009 -7.01052e-009 -8.48049e-010 1.67176e-008 -1.21204e-008 -5.31673e-010 9.64705e-009 -7.0105e-009 -7.73091 5.47488 -0.417314 -5.31667e-010 9.64706e-009 -7.01052e-009 -2.90554 0.965183 -0.102902 -5.31674e-010 9.64706e-009 -7.01052e-009 -10.2786 0.731801 -0.0259123 -5.3167e-010 9.64706e-009 -7.01052e-009 -2.22167 -0.733487 0.20892 -2.03217e-016 0 -3.88251e-019 -10.8061 -40.0225 -7.73352 -0.56851 42.0134 -0.510579 -1.18124 -14.6718 -2.41789 2.03217e-016 0 3.88251e-019 -13.0724 7.1691 0.431095 1.53063 65.1974 -1.75672 0.557365 6.10215 0.956709 
-15.504 79.1915 -1.42846 7.16252 8.93791 -87.0333 -13.1884 19.5354 -0.858311 8.35892 -3.94514 -0.0845412 3.52825 -13.2229 4.57785 -5.44256 -12.3366 7.02434 -0 0 0 -0 0 0 -5.63279e-013 8.43634e-012 -2.05706e-013 100.544 44.6753 -45.6255 -28.4276 -36.1089 77.2026 -0.544174 -20.4894 -3.01034 2.36514e-009 -1.19532e-009 3.63629e-009 4.02034e-009 -2.06022e-009 6.32796e-009 2.36514e-009 -1.19532e-009 3.63628e-009 7.73091 5.47488 0.417314 2.36514e-009 -1.19532e-009 3.63629e-009 2.90554 0.965183 0.102902 2.36515e-009 -1.19532e-009 3.63629e-009 10.2786 0.731801 0.0259123 2.36514e-009 -1.19532e-009 3.6363e-009 2.22167 -0.733487 -0.20892 -5.63458e-013 8.43634e-012 -2.05899e-013 -87.2798 63.6119 12.4691 27.7756 -41.5478 -86.67 0.274871 -14.7877 2.12575 -4.82202e-010 8.65242e-009 -6.49537e-009 -7.66075e-010 1.49945e-008 -1.12299e-008 -4.82205e-010 8.65241e-009 -6.49535e-009 -7.73091 5.47488 -0.417314 -4.82199e-010 8.65242e-009 -6.49537e-009 -2.90554 0.965183 -0.102902 -4.82207e-010 8.65242e-009 -6.49537e-009 -10.2786 0.731801 -0.0259123 -4.82202e-010 8.65242e-009 -6.49537e-009 -2.22167 -0.733487 0.20892 -2.03217e-016 0 -3.88251e-019 -8.1295 -38.974 -5.90449 -0.610507 43.5847 -0.466696 -1.52498 -15.8695 -3.34085 2.03217e-016 0 3.88251e-019 -11.2401 5.79353 1.69391 1.96359 70.2212 -2.40449 0.355572 4.40059 -5.65471 
-13.559 78.3919 -1.27911 6.34131 7.1546 -86.6958 -11.2266 20.7688 -0.0650793 7.81474 -4.6337 0.238336 3.60194 -12.7064 4.41404 -5.86018 -12.9269 6.6231 -0 0 0 -0 0 0 -3.68462e-013 5.55481e-012 -1.37705e-013 98.9848 44.9691 -42.1229 -28.431 -35.8868 76.8272 -0.560773 -20.7857 -3.0579 1.65766e-009 -8.92066e-010 2.89502e-009 2.81124e-009 -1.5383e-009 5.03374e-009 1.65766e-009 -8.92064e-010 2.89501e-009 7.73091 5.47488 0.417314 1.65766e-009 -8.92064e-010 2.89502e-009 2.90554 0.965183 0.102902 1.65767e-009 -8.92064e-010 2.89502e-009 10.2786 0.731801 0.0259123 1.65766e-009 -8.92064e-010 2.89503e-009 2.22167 -0.733487 -0.20892 -3.68556e-013 5.55481e-012 -1.37907e-013 -89.975 62.9752 14.7998 28.0035 -40.4738 -84.7343 0.326508 -16.1004 2.32411 -3.44497e-010 5.86138e-009 -4.83595e-009 -5.41528e-010 1.01592e-008 -8.36135e-009 -3.44502e-010 5.86138e-009 -4.83592e-009 -7.73091 5.47488 -0.417314 -3.44495e-010 5.86138e-009 -4.83594e-009 -2.90554 0.965183 -0.102902 -3.44503e-010 5.86138e-009 -4.83594e-009 -10.2786 0.731801 -0.0259123 -3.44497e-010 5.86138e-009 -4.83595e-009 -2.22167 -0.733487 0.20892 -2.03217e-016 0 -3.88251e-019 -4.66182 -38.0321 -3.54566 -0.66643 45.4552 -0.401919 -1.82002 -17.1358 -4.06788 2.03217e-016 0 3.88251e-019 -8.71002 4.41086 3.05086 2.8365 75.5183 -3.61049 -0.804116 1.32816 -15.5822 
